<svg width="65" height="25" viewBox="0 0 65 25" fill="none" xmlns="http://www.w3.org/2000/svg">
<rect width="65" height="25" rx="10" fill="#F5F5F5"/>
<path d="M30.1624 11.77V14.1H32.7024V14.85H30.1624V17.25H33.0024V18H29.2524V11.02H33.0024V11.77H30.1624ZM37.2394 18L35.9394 15.96L34.6894 18H33.7394L35.5094 15.28L33.7394 12.52H34.7694L36.0694 14.55L37.3094 12.52H38.2594L36.4994 15.23L38.2694 18H37.2394ZM38.8245 15.25C38.8245 14.6833 38.9379 14.19 39.1645 13.77C39.3912 13.3433 39.7045 13.0133 40.1045 12.78C40.5112 12.5467 40.9745 12.43 41.4945 12.43C42.1679 12.43 42.7212 12.5933 43.1545 12.92C43.5945 13.2467 43.8845 13.7 44.0245 14.28H43.0445C42.9512 13.9467 42.7679 13.6833 42.4945 13.49C42.2279 13.2967 41.8945 13.2 41.4945 13.2C40.9745 13.2 40.5545 13.38 40.2345 13.74C39.9145 14.0933 39.7545 14.5967 39.7545 15.25C39.7545 15.91 39.9145 16.42 40.2345 16.78C40.5545 17.14 40.9745 17.32 41.4945 17.32C41.8945 17.32 42.2279 17.2267 42.4945 17.04C42.7612 16.8533 42.9445 16.5867 43.0445 16.24H44.0245C43.8779 16.8 43.5845 17.25 43.1445 17.59C42.7045 17.9233 42.1545 18.09 41.4945 18.09C40.9745 18.09 40.5112 17.9733 40.1045 17.74C39.7045 17.5067 39.3912 17.1767 39.1645 16.75C38.9379 16.3233 38.8245 15.8233 38.8245 15.25ZM46.1488 10.6V18H45.2388V10.6H46.1488ZM52.5597 12.52V18H51.6497V17.19C51.4764 17.47 51.233 17.69 50.9197 17.85C50.613 18.0033 50.273 18.08 49.8997 18.08C49.473 18.08 49.0897 17.9933 48.7497 17.82C48.4097 17.64 48.1397 17.3733 47.9397 17.02C47.7464 16.6667 47.6497 16.2367 47.6497 15.73V12.52H48.5497V15.61C48.5497 16.15 48.6864 16.5667 48.9597 16.86C49.233 17.1467 49.6064 17.29 50.0797 17.29C50.5664 17.29 50.9497 17.14 51.2297 16.84C51.5097 16.54 51.6497 16.1033 51.6497 15.53V12.52H52.5597ZM54.5662 11.63C54.3928 11.63 54.2462 11.57 54.1262 11.45C54.0062 11.33 53.9462 11.1833 53.9462 11.01C53.9462 10.8367 54.0062 10.69 54.1262 10.57C54.2462 10.45 54.3928 10.39 54.5662 10.39C54.7328 10.39 54.8728 10.45 54.9862 10.57C55.1062 10.69 55.1662 10.8367 55.1662 11.01C55.1662 11.1833 55.1062 11.33 54.9862 11.45C54.8728 11.57 54.7328 11.63 54.5662 11.63ZM55.0062 12.52V18H54.0962V12.52H55.0062ZM57.4671 13.41C57.6271 13.0967 57.8538 12.8533 58.1471 12.68C58.4471 12.5067 58.8104 12.42 59.2371 12.42V13.36H58.9971C57.9771 13.36 57.4671 13.9133 57.4671 15.02V18H56.5571V12.52H57.4671V13.41Z" fill="black"/>
<path d="M16.5 6C16.5 5.60218 16.342 5.22064 16.0607 4.93934C15.7794 4.65804 15.3978 4.5 15 4.5C14.6022 4.5 14.2206 4.65804 13.9393 4.93934C13.658 5.22064 13.5 5.60218 13.5 6H12.5C12.5 5.33696 12.7634 4.70107 13.2322 4.23223C13.7011 3.76339 14.337 3.5 15 3.5C15.663 3.5 16.2989 3.76339 16.7678 4.23223C17.2366 4.70107 17.5 5.33696 17.5 6H22C22.1326 6 22.2598 6.05268 22.3536 6.14645C22.4473 6.24021 22.5 6.36739 22.5 6.5C22.5 6.63261 22.4473 6.75979 22.3536 6.85355C22.2598 6.94732 22.1326 7 22 7H21.446L20.15 18.23C20.0936 18.7174 19.86 19.167 19.4936 19.4934C19.1272 19.8198 18.6537 20.0001 18.163 20H11.837C11.3463 20.0001 10.8728 19.8198 10.5064 19.4934C10.14 19.167 9.90642 18.7174 9.85 18.23L8.553 7H8C7.88297 7.00004 7.76964 6.95903 7.67974 6.88411C7.58984 6.80919 7.52906 6.70511 7.508 6.59L7.5 6.5C7.5 6.36739 7.55268 6.24021 7.64645 6.14645C7.74021 6.05268 7.86739 6 8 6H16.5ZM20.438 7H9.561L10.843 18.115C10.8712 18.3588 10.9881 18.5837 11.1714 18.7469C11.3547 18.9101 11.5916 19.0002 11.837 19H18.163C18.4082 18.9999 18.6449 18.9097 18.828 18.7465C19.0111 18.5834 19.1278 18.3586 19.156 18.115L20.438 7ZM13.5 9.5C13.745 9.5 13.95 9.655 13.992 9.859L14 9.938V16.063C14 16.304 13.776 16.5 13.5 16.5C13.255 16.5 13.05 16.345 13.008 16.141L13 16.062V9.939C13 9.697 13.224 9.501 13.5 9.501V9.5ZM16.5 9.5C16.745 9.5 16.95 9.655 16.992 9.859L17 9.938V16.063C17 16.304 16.776 16.5 16.5 16.5C16.255 16.5 16.05 16.345 16.008 16.141L16 16.062V9.939C16 9.697 16.224 9.501 16.5 9.501V9.5Z" fill="black"/>
</svg>
