<svg width="65" height="25" viewBox="0 0 65 25" fill="none" xmlns="http://www.w3.org/2000/svg">
<rect width="65" height="25" rx="10" fill="#F5F5F5"/>
<path d="M32.9417 11.77V14.1H35.4817V14.85H32.9417V17.25H35.7817V18H32.0317V11.02H35.7817V11.77H32.9417ZM36.8187 15.24C36.8187 14.68 36.932 14.19 37.1587 13.77C37.3853 13.3433 37.6953 13.0133 38.0887 12.78C38.4887 12.5467 38.9353 12.43 39.4287 12.43C39.8553 12.43 40.252 12.53 40.6187 12.73C40.9853 12.9233 41.2653 13.18 41.4587 13.5V10.6H42.3787V18H41.4587V16.97C41.2787 17.2967 41.012 17.5667 40.6587 17.78C40.3053 17.9867 39.892 18.09 39.4187 18.09C38.932 18.09 38.4887 17.97 38.0887 17.73C37.6953 17.49 37.3853 17.1533 37.1587 16.72C36.932 16.2867 36.8187 15.7933 36.8187 15.24ZM41.4587 15.25C41.4587 14.8367 41.3753 14.4767 41.2087 14.17C41.042 13.8633 40.8153 13.63 40.5287 13.47C40.2487 13.3033 39.9387 13.22 39.5987 13.22C39.2587 13.22 38.9487 13.3 38.6687 13.46C38.3887 13.62 38.1653 13.8533 37.9987 14.16C37.832 14.4667 37.7487 14.8267 37.7487 15.24C37.7487 15.66 37.832 16.0267 37.9987 16.34C38.1653 16.6467 38.3887 16.8833 38.6687 17.05C38.9487 17.21 39.2587 17.29 39.5987 17.29C39.9387 17.29 40.2487 17.21 40.5287 17.05C40.8153 16.8833 41.042 16.6467 41.2087 16.34C41.3753 16.0267 41.4587 15.6633 41.4587 15.25ZM44.3865 11.63C44.2132 11.63 44.0665 11.57 43.9465 11.45C43.8265 11.33 43.7665 11.1833 43.7665 11.01C43.7665 10.8367 43.8265 10.69 43.9465 10.57C44.0665 10.45 44.2132 10.39 44.3865 10.39C44.5532 10.39 44.6932 10.45 44.8065 10.57C44.9265 10.69 44.9865 10.8367 44.9865 11.01C44.9865 11.1833 44.9265 11.33 44.8065 11.45C44.6932 11.57 44.5532 11.63 44.3865 11.63ZM44.8265 12.52V18H43.9165V12.52H44.8265ZM47.4874 13.27V16.5C47.4874 16.7667 47.5441 16.9567 47.6574 17.07C47.7708 17.1767 47.9674 17.23 48.2474 17.23H48.9174V18H48.0974C47.5908 18 47.2108 17.8833 46.9574 17.65C46.7041 17.4167 46.5774 17.0333 46.5774 16.5V13.27H45.8674V12.52H46.5774V11.14H47.4874V12.52H48.9174V13.27H47.4874ZM49.68 15.24C49.68 14.68 49.7933 14.19 50.02 13.77C50.2467 13.3433 50.5567 13.0133 50.95 12.78C51.35 12.5467 51.7933 12.43 52.28 12.43C52.76 12.43 53.1767 12.5333 53.53 12.74C53.8833 12.9467 54.1467 13.2067 54.32 13.52V12.52H55.24V18H54.32V16.98C54.14 17.3 53.87 17.5667 53.51 17.78C53.1567 17.9867 52.7433 18.09 52.27 18.09C51.7833 18.09 51.3433 17.97 50.95 17.73C50.5567 17.49 50.2467 17.1533 50.02 16.72C49.7933 16.2867 49.68 15.7933 49.68 15.24ZM54.32 15.25C54.32 14.8367 54.2367 14.4767 54.07 14.17C53.9033 13.8633 53.6767 13.63 53.39 13.47C53.11 13.3033 52.8 13.22 52.46 13.22C52.12 13.22 51.81 13.3 51.53 13.46C51.25 13.62 51.0267 13.8533 50.86 14.16C50.6933 14.4667 50.61 14.8267 50.61 15.24C50.61 15.66 50.6933 16.0267 50.86 16.34C51.0267 16.6467 51.25 16.8833 51.53 17.05C51.81 17.21 52.12 17.29 52.46 17.29C52.8 17.29 53.11 17.21 53.39 17.05C53.6767 16.8833 53.9033 16.6467 54.07 16.34C54.2367 16.0267 54.32 15.6633 54.32 15.25ZM57.6878 13.41C57.8478 13.0967 58.0745 12.8533 58.3678 12.68C58.6678 12.5067 59.0311 12.42 59.4578 12.42V13.36H59.2178C58.1978 13.36 57.6878 13.9133 57.6878 15.02V18H56.7778V12.52H57.6878V13.41Z" fill="black"/>
<path d="M11.0332 16.6875C11.0723 16.6875 11.1113 16.6836 11.1504 16.6777L14.4355 16.1016C14.4746 16.0938 14.5117 16.0762 14.5391 16.0469L22.8184 7.76758C22.8365 7.74951 22.8508 7.72805 22.8606 7.70442C22.8704 7.68079 22.8755 7.65546 22.8755 7.62988C22.8755 7.6043 22.8704 7.57897 22.8606 7.55535C22.8508 7.53172 22.8365 7.51026 22.8184 7.49219L19.5723 4.24414C19.5352 4.20703 19.4863 4.1875 19.4336 4.1875C19.3809 4.1875 19.332 4.20703 19.2949 4.24414L11.0156 12.5234C10.9863 12.5527 10.9688 12.5879 10.9609 12.627L10.3848 15.9121C10.3658 16.0167 10.3726 16.1244 10.4045 16.2258C10.4365 16.3273 10.4928 16.4193 10.5684 16.4941C10.6973 16.6191 10.8594 16.6875 11.0332 16.6875ZM12.3496 13.2812L19.4336 6.19922L20.8652 7.63086L13.7812 14.7129L12.0449 15.0195L12.3496 13.2812ZM23.1875 18.3281H8.8125C8.4668 18.3281 8.1875 18.6074 8.1875 18.9531V19.6562C8.1875 19.7422 8.25781 19.8125 8.34375 19.8125H23.6562C23.7422 19.8125 23.8125 19.7422 23.8125 19.6562V18.9531C23.8125 18.6074 23.5332 18.3281 23.1875 18.3281Z" fill="black"/>
</svg>
