<svg width="65" height="25" viewBox="0 0 65 25" fill="none" xmlns="http://www.w3.org/2000/svg">
<rect width="65" height="25" rx="10" fill="#F5F5F5"/>
<path d="M39.5352 18H38.6252L34.9652 12.45V18H34.0552V11.02H34.9652L38.6252 16.56V11.02H39.5352V18ZM43.4764 18.09C42.9631 18.09 42.4964 17.9733 42.0764 17.74C41.6631 17.5067 41.3364 17.1767 41.0964 16.75C40.8631 16.3167 40.7464 15.8167 40.7464 15.25C40.7464 14.69 40.8664 14.1967 41.1064 13.77C41.3531 13.3367 41.6864 13.0067 42.1064 12.78C42.5264 12.5467 42.9964 12.43 43.5164 12.43C44.0364 12.43 44.5064 12.5467 44.9264 12.78C45.3464 13.0067 45.6764 13.3333 45.9164 13.76C46.1631 14.1867 46.2864 14.6833 46.2864 15.25C46.2864 15.8167 46.1597 16.3167 45.9064 16.75C45.6597 17.1767 45.3231 17.5067 44.8964 17.74C44.4697 17.9733 43.9964 18.09 43.4764 18.09ZM43.4764 17.29C43.8031 17.29 44.1097 17.2133 44.3964 17.06C44.6831 16.9067 44.9131 16.6767 45.0864 16.37C45.2664 16.0633 45.3564 15.69 45.3564 15.25C45.3564 14.81 45.2697 14.4367 45.0964 14.13C44.9231 13.8233 44.6964 13.5967 44.4164 13.45C44.1364 13.2967 43.8331 13.22 43.5064 13.22C43.1731 13.22 42.8664 13.2967 42.5864 13.45C42.3131 13.5967 42.0931 13.8233 41.9264 14.13C41.7597 14.4367 41.6764 14.81 41.6764 15.25C41.6764 15.6967 41.7564 16.0733 41.9164 16.38C42.0831 16.6867 42.3031 16.9167 42.5764 17.07C42.8497 17.2167 43.1497 17.29 43.4764 17.29ZM49.5229 17.16L51.2229 12.52H52.1929L50.0429 18H48.9829L46.8329 12.52H47.8129L49.5229 17.16ZM55.4784 18.09C54.965 18.09 54.4984 17.9733 54.0784 17.74C53.665 17.5067 53.3384 17.1767 53.0984 16.75C52.865 16.3167 52.7484 15.8167 52.7484 15.25C52.7484 14.69 52.8684 14.1967 53.1084 13.77C53.355 13.3367 53.6884 13.0067 54.1084 12.78C54.5284 12.5467 54.9984 12.43 55.5184 12.43C56.0384 12.43 56.5084 12.5467 56.9284 12.78C57.3484 13.0067 57.6784 13.3333 57.9184 13.76C58.165 14.1867 58.2884 14.6833 58.2884 15.25C58.2884 15.8167 58.1617 16.3167 57.9084 16.75C57.6617 17.1767 57.325 17.5067 56.8984 17.74C56.4717 17.9733 55.9984 18.09 55.4784 18.09ZM55.4784 17.29C55.805 17.29 56.1117 17.2133 56.3984 17.06C56.685 16.9067 56.915 16.6767 57.0884 16.37C57.2684 16.0633 57.3584 15.69 57.3584 15.25C57.3584 14.81 57.2717 14.4367 57.0984 14.13C56.925 13.8233 56.6984 13.5967 56.4184 13.45C56.1384 13.2967 55.835 13.22 55.5084 13.22C55.175 13.22 54.8684 13.2967 54.5884 13.45C54.315 13.5967 54.095 13.8233 53.9284 14.13C53.7617 14.4367 53.6784 14.81 53.6784 15.25C53.6784 15.6967 53.7584 16.0733 53.9184 16.38C54.085 16.6867 54.305 16.9167 54.5784 17.07C54.8517 17.2167 55.1517 17.29 55.4784 17.29Z" fill="black"/>
<path fill-rule="evenodd" clip-rule="evenodd" d="M18.875 3.375L23.125 7.75L23.25 8.25V10.75H22V9.5H17V4.5H10.75V18.25H15.75V19.5H10.125L9.5 18.875V3.875L10.125 3.25H18.5L18.875 3.375ZM18.25 4.5V8.25H21.875L18.25 4.5ZM23.25 22H22V18.25H18.25V17H22V13.25H23.25V17H27V18.25H23.25V22Z" fill="black"/>
</svg>
